<svg width="111" height="111" viewBox="0 0 111 111" fill="none" xmlns="http://www.w3.org/2000/svg">
<path d="M48.5083 28.3462L33.5211 3.36902C32.9049 2.34154 32.033 1.49117 30.9905 0.900756C29.9479 0.310343 28.7703 1.47102e-05 27.5721 0H3.47511C0.66758 0 -0.975746 3.15873 0.632892 5.45895L24.756 39.921C31.1992 33.9005 39.3941 29.7684 48.5083 28.3462ZM107.525 0H83.4279C80.9911 0 78.732 1.2791 77.4789 3.36902L62.4917 28.3462C71.6059 29.7684 79.8008 33.9005 86.2441 39.9188L110.367 5.45895C111.976 3.15873 110.332 0 107.525 0ZM55.5 34.6875C34.4273 34.6875 17.3436 51.7711 17.3436 72.8438C17.3436 93.9164 34.4273 111 55.5 111C76.5727 111 93.6564 93.9164 93.6564 72.8438C93.6564 51.7711 76.5727 34.6875 55.5 34.6875ZM75.5581 68.781L67.335 76.7938L69.2796 88.1149C69.6265 90.1441 67.4889 91.6942 65.67 90.736L55.5 85.392L45.3322 90.736C43.5111 91.7007 41.3756 90.142 41.7225 88.1149L43.6672 76.7938L35.4441 68.781C33.9655 67.3414 34.7828 64.8288 36.8207 64.5339L48.1874 62.8776L53.267 52.5754C53.7244 51.6475 54.609 51.1901 55.4957 51.1901C56.3867 51.1901 57.2777 51.654 57.7352 52.5754L62.8147 62.8776L74.1814 64.5339C76.2193 64.8288 77.0367 67.3414 75.5581 68.781Z" fill="#F2F2F2"/>
</svg>
