<svg width="167" height="167" viewBox="0 0 167 167" fill="none" xmlns="http://www.w3.org/2000/svg">
<rect x="15.5563" y="43.1005" width="52" height="20" rx="10" transform="rotate(-45 15.5563 43.1005)" stroke="#F2F2F2" stroke-width="8"/>
<rect x="39.5981" y="55.8281" width="36" height="43" rx="8" transform="rotate(-45 39.5981 55.8281)" fill="#F2F2F2"/>
<path d="M102.159 108.525C101.583 107.93 101.583 106.964 102.159 106.369L115.366 92.7099C115.942 92.1143 116.876 92.1142 117.452 92.7097C118.028 93.3051 118.028 94.2706 117.452 94.8662L104.245 108.525C103.669 109.121 102.735 109.121 102.159 108.525Z" fill="#F2F2F2"/>
<path d="M117.715 124.081C117.139 123.486 117.139 122.52 117.715 121.925L130.922 108.266C131.498 107.67 132.432 107.67 133.008 108.266C133.584 108.861 133.584 109.827 133.008 110.422L119.801 124.081C119.225 124.677 118.291 124.677 117.715 124.081Z" fill="#F2F2F2"/>
<rect width="22" height="3" rx="1.5" transform="matrix(0.534607 -0.845101 0.711876 0.702306 104.652 110.983)" fill="#F2F2F2"/>
<rect width="22" height="3" rx="1.5" transform="matrix(0.534607 -0.845101 0.711876 0.702306 108.895 115.226)" fill="#F2F2F2"/>
<rect width="22" height="3" rx="1.5" transform="matrix(0.534607 -0.845101 0.711876 0.702306 112.43 118.761)" fill="#F2F2F2"/>
<path d="M117.74 124.057C117.151 123.475 117.032 122.436 117.474 121.736L127.632 105.679C128.075 104.978 128.912 104.883 129.502 105.464C130.091 106.046 130.21 107.085 129.768 107.786L119.61 123.842C119.167 124.543 118.33 124.638 117.74 124.057Z" fill="#F2F2F2"/>
<rect x="74.2461" y="83.4053" width="25" height="33" rx="3" transform="rotate(-45 74.2461 83.4053)" fill="#F2F2F2"/>
<path d="M140.775 133.463C142.429 134.161 144.094 132.496 143.396 130.843L137.965 117.979C137.413 116.671 135.712 116.339 134.708 117.343L127.275 124.776C126.271 125.779 126.604 127.48 127.911 128.032L140.775 133.463Z" fill="#F2F2F2"/>
<path d="M127.393 119.091C127.537 118.257 128.19 117.604 129.023 117.46L135.522 116.339C137.445 116.007 138.656 118.344 137.276 119.724L129.656 127.344C128.276 128.724 125.939 127.513 126.271 125.59L127.393 119.091Z" fill="#F2F2F2"/>
<path d="M42.5159 61.6935C42.7959 61.1722 43.4964 61.1415 43.9149 61.5599L49.3679 67.0129C49.8054 67.4505 49.748 68.1855 49.2013 68.4754C49.0242 68.5694 48.8522 68.6479 48.7129 68.6872C48.1937 68.8336 42.2061 62.846 42.2955 62.2698C42.3223 62.0969 42.4084 61.8935 42.5159 61.6935Z" fill="#F2F2F2"/>
<path d="M35.0043 74.95L41.205 68.7492L43.1335 70.6777L36.9327 76.8784C31.7841 82.0324 28.9913 81.9344 23.9774 76.9773L16.2635 69.2634L18.2216 67.3053L25.9355 75.0192C29.2372 78.2715 31.179 78.7744 35.0043 74.95Z" fill="#F2F2F2"/>
<path d="M40.3758 67.2129L39.598 67.1422L43.8406 71.3848L43.7699 70.607L44.5477 70.6777L44.477 69.8999L45.2548 69.9706L45.1841 69.1928L45.9619 69.2635L45.8912 68.4857L46.669 68.5564L42.4264 64.3137L42.4971 65.0915L41.7193 65.0208L41.79 65.7986L41.0122 65.7279L41.0829 66.5058L40.3051 66.435L40.3758 67.2129Z" fill="#F2F2F2"/>
</svg>
