<svg width="217" height="77" viewBox="0 0 217 77" fill="none" xmlns="http://www.w3.org/2000/svg">
<rect width="217" height="77" rx="4" fill="#333333"/>
<g clip-path="url(#clip0_1_175)">
<path d="M102.558 32L104.591 32.6882C103.565 35.9602 104.284 39.6983 106.769 42.3284C107.441 43.0398 108.195 43.6194 109 44.0684L107.966 46C106.98 45.4485 106.058 44.7377 105.236 43.8671C102.177 40.6293 101.293 36.0273 102.558 32Z" fill="#B2D63C"/>
<path d="M100 39.5558L102.201 39C102.714 40.9046 103.721 42.7091 105.226 44.2175C108.04 47.0385 111.959 48.1888 115.674 47.6527L116 49.8496C111.589 50.4828 106.937 49.1156 103.596 45.7665C101.805 43.9712 100.608 41.8228 100 39.5558Z" fill="#B2D63C"/>
<path d="M99.6786 29L101.692 30.0076C99.1255 35.313 99.9656 41.9132 104.259 46.3836C109.214 51.5424 117.091 52.1167 122.693 48.0354L124 49.8868C117.511 54.6117 108.39 53.9467 102.65 47.9718C97.6764 42.7936 96.7036 35.1461 99.6786 29Z" fill="#B2D63C"/>
<path d="M113.229 17L113.324 19.2375C109.348 19.3949 105.416 20.9215 102.348 23.8303C95.743 30.0916 95.6013 40.4164 102.033 46.8464C108.465 53.2769 119.071 53.4139 125.675 47.1525C126.185 46.6697 126.656 46.1627 127.088 45.6352L129 46.8941C128.478 47.5436 127.904 48.1666 127.281 48.7579C119.767 55.8813 107.701 55.7251 100.384 48.4095C93.0675 41.0945 93.2283 29.3485 100.742 22.2256C104.233 18.9165 108.706 17.1791 113.229 17Z" fill="#B2D63C"/>
<path d="M117.024 17.4508C111.404 16.7406 105.514 18.4463 101.148 22.5935C93.5634 29.7967 93.4008 41.6751 100.786 49.0723C104.334 52.6257 108.988 54.5078 113.708 54.7068L113.649 57C108.336 56.7866 103.094 54.673 99.1006 50.6728C90.8105 42.369 90.9924 29.0352 99.5059 20.9491C104.582 16.1281 111.491 14.2459 118 15.2708L117.024 17.4508Z" fill="#B2D63C"/>
<path d="M114 45.9873L114.126 43.5361C116.192 43.6387 118.291 42.864 119.886 41.2039C119.951 41.1366 120.013 41.0686 120.076 41L122 42.3917C121.838 42.5874 121.668 42.7784 121.489 42.9639C119.416 45.1222 116.685 46.1266 114 45.9873Z" fill="#B2D63C"/>
<path d="M60 45.6702V26H64.2812L69.3859 39.9241C69.8583 41.2194 70.2 42.1904 70.4159 42.8358C70.6622 42.1217 71.049 41.0684 71.5716 39.6809L76.7665 26H80.5904V45.6702H77.8472V29.2143L71.5462 45.6702H68.9738L62.7438 28.9123V45.6702H60ZM86.715 45.6702V26H89.5788V45.6702H86.715ZM140.778 26H143.642V37.3596C143.642 39.3381 143.396 40.9081 142.908 42.0715C142.416 43.2294 141.532 44.1775 140.255 44.9053C138.974 45.6336 137.301 46 135.221 46C133.206 46 131.553 45.6838 130.272 45.0476C128.986 44.4108 128.071 43.4955 127.524 42.2912C126.976 41.0869 126.7 39.4433 126.7 37.3596V26H129.563V37.3553C129.563 39.0633 129.739 40.327 130.086 41.1327C130.433 41.9428 131.026 42.5703 131.875 43.0054C132.719 43.4448 133.754 43.6645 134.975 43.6645C137.065 43.6645 138.557 43.2294 139.446 42.3643C140.335 41.4942 140.778 39.8276 140.778 37.3553V26ZM149.41 45.6702V26H153.691L158.795 39.9241C159.268 41.2194 159.61 42.1904 159.825 42.8358C160.072 42.1217 160.459 41.0684 160.981 39.6809L166.176 26H170V45.6702H167.257V29.2143L160.956 45.6702H158.383L152.153 28.9123V45.6702H149.41Z" fill="#F2F2F2"/>
<path fill-rule="evenodd" clip-rule="evenodd" d="M119.864 17L179.819 17.0785L180 61.9918L31 61.9999L45.5938 26.2448L42.6643 40.1981L35.0543 59.4286L177.195 59.35L177.146 19.6914L121.656 19.4947L116.516 31.7463C117.814 32.7128 118.654 34.2486 118.654 35.9785C118.654 38.9024 116.255 41.2726 113.296 41.2726C110.338 41.2726 107.939 38.9024 107.939 35.9785C107.939 33.0546 110.338 30.6837 113.296 30.6837C113.543 30.6837 113.785 30.7007 114.023 30.7327L119.864 17ZM113.296 33.2947C114.796 33.2947 116.012 34.4961 116.012 35.9785C116.012 37.4609 114.796 38.6623 113.296 38.6623C111.796 38.6623 110.581 37.4609 110.581 35.9785C110.581 34.4961 111.796 33.2947 113.296 33.2947Z" fill="#EF7F1A"/>
<path d="M31 62L45.84 26H49.0416L58 46.1288H54.6857L52.1404 40.0284H42.8746L34.0884 62H31V62ZM43.7303 37.8638H51.2283L48.9342 32.2834C48.2428 30.5875 47.7198 29.186 47.3567 28.0803C47.0544 29.3925 46.6498 30.6812 46.1423 31.9554L43.7303 37.8638Z" fill="#EF7F1A"/>
<path d="M193.227 28.2475L193.227 28.2476C192.358 28.7307 191.45 28.9746 190.506 28.9746C189.559 28.9746 188.651 28.7307 187.782 28.2476C186.913 27.7638 186.236 27.0874 185.752 26.2203C185.269 25.355 185.025 24.4498 185.025 23.5028C185.025 22.5533 185.272 21.6393 185.764 20.7622L193.227 28.2475ZM193.227 28.2475C194.096 27.7638 194.774 27.0874 195.254 26.2202C195.734 25.3549 195.975 24.4497 195.975 23.5028C195.975 22.5532 195.728 21.6393 195.239 20.7623C194.75 19.8833 194.066 19.2061 193.191 18.7341L193.191 18.7341M193.227 28.2475L193.191 18.7341M193.191 18.7341C192.317 18.2631 191.421 18.0254 190.506 18.0254C189.583 18.0254 188.683 18.2631 187.813 18.7341M193.191 18.7341L187.813 18.7341M187.813 18.7341C186.94 19.2061 186.256 19.8833 185.764 20.7622L187.813 18.7341ZM193.678 17.8853L193.678 17.8853C194.707 18.4396 195.512 19.2348 196.086 20.2676C196.661 21.3042 196.949 22.383 196.949 23.5028C196.949 24.614 196.667 25.6841 196.097 26.7088L196.097 26.7089C195.532 27.7356 194.739 28.5315 193.716 29.0969L193.715 29.0969C192.691 29.6661 191.62 29.9494 190.506 29.9494C189.389 29.9494 188.319 29.6661 187.294 29.0969L187.294 29.0969C186.27 28.5314 185.474 27.7355 184.906 26.7088L184.906 26.7088C184.336 25.684 184.051 24.6139 184.051 23.5028C184.051 22.383 184.339 21.3043 184.917 20.2677C185.498 19.2348 186.302 18.4396 187.331 17.8853L187.331 17.8853C188.366 17.3276 189.421 17.0506 190.506 17.0506C191.588 17.0506 192.644 17.3276 193.678 17.8853Z" fill="#F2F2F2" stroke="#F2F2F2" stroke-width="0.101248"/>
<path d="M188 26V21H190.519C191.026 21 191.411 21.0454 191.674 21.1351C191.938 21.2247 192.148 21.3831 192.305 21.6102C192.463 21.8372 192.541 22.0881 192.541 22.3629C192.541 22.7181 192.41 23.0173 192.149 23.2601C191.889 23.5035 191.486 23.6572 190.941 23.7236C191.141 23.8074 191.292 23.8912 191.395 23.9728C191.615 24.1497 191.822 24.3716 192.017 24.6382L193 26H192.061L191.309 24.9596C191.09 24.658 190.91 24.4286 190.768 24.2691C190.625 24.1102 190.498 23.9995 190.385 23.9355C190.274 23.8726 190.159 23.8284 190.043 23.8027C189.958 23.7876 189.819 23.7795 189.625 23.7795H188.754V26H188ZM188.754 23.2066H190.368C190.712 23.2066 190.98 23.1751 191.173 23.1122C191.366 23.0511 191.513 22.951 191.612 22.8124C191.713 22.675 191.763 22.526 191.763 22.3641C191.763 22.1277 191.666 21.9327 191.472 21.7802C191.277 21.6276 190.97 21.5519 190.551 21.5519H188.754V23.2066Z" fill="#F2F2F2" stroke="#F2F2F2" stroke-width="0.598375" stroke-miterlimit="22.9256"/>
</g>
<defs>
<clipPath id="clip0_1_175">
<rect width="166" height="47" fill="white" transform="translate(31 15)"/>
</clipPath>
</defs>
</svg>
