<svg width="70" height="70" viewBox="0 0 70 70" fill="none" xmlns="http://www.w3.org/2000/svg">
<g filter="url(#filter0_d_785_32)">
<circle cx="35" cy="31" r="30" fill="#ACD91B"/>
<path d="M27.3075 43V40.216L36.2035 31.768C36.9502 31.064 37.5048 30.4453 37.8675 29.912C38.2302 29.3787 38.4648 28.888 38.5715 28.44C38.6995 27.9707 38.7635 27.5333 38.7635 27.128C38.7635 26.104 38.4115 25.3147 37.7075 24.76C37.0035 24.184 35.9688 23.896 34.6035 23.896C33.5155 23.896 32.5235 24.088 31.6275 24.472C30.7528 24.856 29.9955 25.4427 29.3555 26.232L26.4435 23.992C27.3182 22.8187 28.4915 21.912 29.9635 21.272C31.4568 20.6107 33.1208 20.28 34.9555 20.28C36.5768 20.28 37.9848 20.5467 39.1795 21.08C40.3955 21.592 41.3235 22.328 41.9635 23.288C42.6248 24.248 42.9555 25.3893 42.9555 26.712C42.9555 27.4373 42.8595 28.1627 42.6675 28.888C42.4755 29.592 42.1128 30.3387 41.5795 31.128C41.0462 31.9173 40.2675 32.8027 39.2435 33.784L31.5955 41.048L30.7315 39.48H43.8195V43H27.3075Z" fill="black"/>
</g>
<defs>
<filter id="filter0_d_785_32" x="0" y="0" width="70" height="70" filterUnits="userSpaceOnUse" color-interpolation-filters="sRGB">
<feFlood flood-opacity="0" result="BackgroundImageFix"/>
<feColorMatrix in="SourceAlpha" type="matrix" values="0 0 0 0 0 0 0 0 0 0 0 0 0 0 0 0 0 0 127 0" result="hardAlpha"/>
<feMorphology radius="1" operator="dilate" in="SourceAlpha" result="effect1_dropShadow_785_32"/>
<feOffset dy="4"/>
<feGaussianBlur stdDeviation="2"/>
<feComposite in2="hardAlpha" operator="out"/>
<feColorMatrix type="matrix" values="0 0 0 0 0 0 0 0 0 0 0 0 0 0 0 0 0 0 0.2 0"/>
<feBlend mode="normal" in2="BackgroundImageFix" result="effect1_dropShadow_785_32"/>
<feBlend mode="normal" in="SourceGraphic" in2="effect1_dropShadow_785_32" result="shape"/>
</filter>
</defs>
</svg>
