<svg width="118" height="100" viewBox="0 0 118 100" fill="none" xmlns="http://www.w3.org/2000/svg">
<path d="M111.082 0.0121218C99.8551 0.706315 77.5413 3.23309 63.7662 12.4205C62.8156 13.0545 62.2768 14.1817 62.2768 15.3603V96.5808C62.2768 99.159 64.8643 100.788 67.0461 99.592C81.2186 91.8197 101.715 89.6992 111.85 89.1188C115.31 88.9202 118 85.8979 118 82.2751V6.86477C118.002 2.91166 114.855 -0.22002 111.082 0.0121218ZM54.2338 12.4205C40.4608 3.23309 18.1469 0.708547 6.92033 0.0121218C3.14672 -0.22002 0 2.91166 0 6.86477V82.2773C0 85.9023 2.68987 88.9246 6.15004 89.1211C16.2888 89.7014 36.7957 91.8242 50.9683 99.6009C53.1439 100.795 55.7232 99.1679 55.7232 96.5965V15.3201C55.7232 14.1393 55.1864 13.0567 54.2338 12.4205Z" fill="#F2F2F2"/>
</svg>
